<svg width="25" height="22" viewBox="0 0 25 22" fill="none" xmlns="http://www.w3.org/2000/svg">
<path fill-rule="evenodd" clip-rule="evenodd" d="M12.8909 21.1386C12.5236 21.5059 11.9281 21.5059 11.5608 21.1386L0.274061 9.85187C-0.0932484 9.48455 -0.0932484 8.88902 0.274061 8.52171C0.641375 8.1544 1.2369 8.1544 1.60422 8.52171L12.2259 19.1434L22.8475 8.52171C23.2148 8.1544 23.8103 8.1544 24.1776 8.52171C24.545 8.88902 24.545 9.48455 24.1776 9.85187L12.8909 21.1386Z" fill="#EE7026"/>
<path fill-rule="evenodd" clip-rule="evenodd" d="M12.8909 13.6151C12.5236 13.9825 11.9281 13.9825 11.5608 13.6151L0.274061 2.32843C-0.0932484 1.96112 -0.0932484 1.36559 0.274061 0.998277C0.641375 0.630964 1.2369 0.630964 1.60422 0.998277L12.2259 11.6199L22.8475 0.998277C23.2148 0.630964 23.8103 0.630964 24.1776 0.998277C24.545 1.36559 24.545 1.96112 24.1776 2.32843L12.8909 13.6151Z" fill="#EE7026"/>
</svg>
