<svg width="150" height="150" viewBox="0 0 150 150" fill="none" xmlns="http://www.w3.org/2000/svg">
<rect width="150" height="150" fill="#DDDDDD"/>
<g filter="url(#filter0_d_1_1654)">
<mask id="mask0_1_1654" style="mask-type:luminance" maskUnits="userSpaceOnUse" x="15" y="53" width="120" height="45">
<path d="M15 53H135V98H15V53Z" fill="white"/>
</mask>
<g mask="url(#mask0_1_1654)">
<path fill-rule="evenodd" clip-rule="evenodd" d="M63.5747 79.0421C69.2306 79.2142 74.7989 78.623 80.2811 77.2687C76.8071 79.7766 73.7384 84.3339 73.3938 87.8248C72.0776 86.0595 70.5934 84.4376 68.9411 82.959C67.2888 81.4818 65.5023 80.1753 63.5789 79.0435M83.967 97.8471C82.504 93.3063 80.3433 83.1393 89.6356 76.8277C96.2745 72.321 116.428 66.9993 127.225 63.1738L134.989 53C126.686 57.037 118.097 60.3805 109.219 63.0319C89.6935 68.8151 78.0075 72.2473 62.9603 72.5326C52.1315 72.7374 51.9818 67.7966 62.5127 58.9375C47.0743 64.662 31.2872 69.2642 15.1484 72.7456C32.0908 73.2057 44.9546 76.5383 52.6851 80.8825C63.6919 87.063 66.3638 93.5534 67.6009 97.8444L83.967 97.8471Z" fill="#333333"/>
</g>
</g>
<defs>
<filter id="filter0_d_1_1654" x="12.1484" y="50" width="129.841" height="54.8471" filterUnits="userSpaceOnUse" color-interpolation-filters="sRGB">
<feFlood flood-opacity="0" result="BackgroundImageFix"/>
<feColorMatrix in="SourceAlpha" type="matrix" values="0 0 0 0 0 0 0 0 0 0 0 0 0 0 0 0 0 0 127 0" result="hardAlpha"/>
<feOffset dx="2" dy="2"/>
<feGaussianBlur stdDeviation="2.5"/>
<feComposite in2="hardAlpha" operator="out"/>
<feColorMatrix type="matrix" values="0 0 0 0 0.933333 0 0 0 0 0.439216 0 0 0 0 0.14902 0 0 0 1 0"/>
<feBlend mode="normal" in2="BackgroundImageFix" result="effect1_dropShadow_1_1654"/>
<feBlend mode="normal" in="SourceGraphic" in2="effect1_dropShadow_1_1654" result="shape"/>
</filter>
</defs>
</svg>
