<svg width="150" height="150" viewBox="0 0 150 150" fill="none" xmlns="http://www.w3.org/2000/svg">
<rect width="150" height="150" fill="#DDDDDD"/>
<g filter="url(#filter0_d_1_1677)">
<path d="M52.6142 83.6374L47.514 92.1145L19.1584 90.5377L22.0146 85.8059L52.6142 83.6374ZM73.2169 56.434L75.8696 65.8962L35.4784 63.3328L38.3346 58.6025L73.2169 56.434ZM46.4946 45H70.1571L71.9924 51.5054L43.8419 49.7319L46.6982 45H46.4946ZM44.4542 97.4366L40.375 104.139H11L13.8547 99.4083L44.4542 97.4366ZM95.86 79.1037L88.721 90.9312H95.4513C98.5111 90.9312 104.224 89.3544 105.855 85.2142C107.487 81.2722 104.427 79.1037 102.388 79.1037H95.6565H95.86ZM102.795 67.868H108.712C112.587 67.868 116.463 66.093 118.3 62.5444C119.728 59.3909 117.891 56.6307 115.443 56.6307H109.731L102.999 67.868H102.795ZM76.0732 65.8962L81.9892 56.039L102.183 54.8572L102.795 53.6739L84.2331 52.4905L88.5159 45.1967H123.195C133.802 45.1967 141.759 48.9435 138.699 59.5876C137.678 62.7411 133.395 71.0216 120.747 74.3719C126.051 74.9635 129.723 79.4972 129.111 84.6225C129.111 84.6225 129.111 84.8207 129.111 85.0175C127.07 98.0282 109.324 104.335 99.5321 104.335H58.7338L56.6934 96.8449L78.112 95.4648L78.9294 94.283L55.674 92.9029L53.2265 83.8341L86.2719 82.0606L87.0878 80.8773L27.7271 77.3287L30.5833 72.5984L94.4319 68.6564L95.2478 67.473L76.4803 66.2897L76.0732 65.8962Z" fill="#333333"/>
</g>
<defs>
<filter id="filter0_d_1_1677" x="8" y="42" width="138.36" height="69.3354" filterUnits="userSpaceOnUse" color-interpolation-filters="sRGB">
<feFlood flood-opacity="0" result="BackgroundImageFix"/>
<feColorMatrix in="SourceAlpha" type="matrix" values="0 0 0 0 0 0 0 0 0 0 0 0 0 0 0 0 0 0 127 0" result="hardAlpha"/>
<feOffset dx="2" dy="2"/>
<feGaussianBlur stdDeviation="2.5"/>
<feComposite in2="hardAlpha" operator="out"/>
<feColorMatrix type="matrix" values="0 0 0 0 0.933333 0 0 0 0 0.439216 0 0 0 0 0.14902 0 0 0 1 0"/>
<feBlend mode="normal" in2="BackgroundImageFix" result="effect1_dropShadow_1_1677"/>
<feBlend mode="normal" in="SourceGraphic" in2="effect1_dropShadow_1_1677" result="shape"/>
</filter>
</defs>
</svg>
