<svg width="150" height="150" viewBox="0 0 150 150" fill="none" xmlns="http://www.w3.org/2000/svg">
<rect width="150" height="150" fill="#DDDDDD"/>
<g filter="url(#filter0_d_1_1650)">
<path fill-rule="evenodd" clip-rule="evenodd" d="M129.414 40.9828C130.982 42.6119 129.697 45.3208 128.059 46.6137C127.04 47.4219 125.165 48.2492 121.618 49.6169C120.425 50.0788 118.454 51.2816 117.689 51.7561C113.89 54.13 111.128 59.483 108.059 65.3499C108.059 65.3499 106.761 68.2313 100.993 71.3373C100.029 71.8537 100.901 72.2851 101.953 73.3965C103.318 74.8391 106.034 80.8101 105.687 89.873C105.626 91.4767 106.423 92.1746 107.32 93.4852C108.89 95.7627 111.964 95.2653 111.886 98.2356C111.789 102.245 115.407 103.099 114.253 104.944C113.403 106.295 113.689 107.594 113.697 108.904C113.7 109.571 114.142 110.547 112.443 110.468C105.546 110.136 106.006 102.584 106.129 99.989C106.248 99.649 105.925 99.0311 105.873 99.0019C105.54 98.8027 101.225 96.0799 100.942 95.8439C95.7152 91.5161 92.2746 87.6298 90.3481 83.6306C89.0731 80.9737 87.7606 78.3334 85.5231 76.6586C83.0231 74.7808 79.9262 73.7391 77.2293 73.7264C58.0168 73.6427 54.0715 66.7798 48.8387 63.3503C48.6902 63.2589 48.209 63.0483 47.9231 63.0267C47.6402 63.0483 47.4012 63.3338 47.2215 63.4568C45.2074 65.1697 43.1684 65.7445 40.434 65.7445C33.9481 65.7445 26.9574 61.1032 25.7356 62.1411C24.7965 62.9455 25.5996 64.6 23.884 64.8792C21.3809 65.2864 18.8012 63.2792 19.0121 61.5803C19.3856 58.5327 23.209 57.6433 26.5637 57.34C29.3387 57.0901 31.6043 57.708 32.1262 57.7663C33.6809 57.9338 33.9481 56.4087 33.6887 55.4165C33.4106 54.3584 32.1762 54.1325 30.9027 53.8255C29.3512 53.4537 27.6277 54.4979 26.4637 54.1655C25.0996 53.7798 25.0074 53.2076 23.8637 52.3943C22.4402 51.378 20.7762 51.1077 20.7793 49.6626C20.7793 48.3456 22.7574 48.2339 23.3356 47.0045C23.6184 46.4043 23.5309 45.7661 23.7809 45.4007C24.4574 44.4035 25.709 44.4542 26.7262 43.6397C28.1012 42.5333 28.7809 40.3878 29.5027 40.2977C30.2231 40.2063 31.4168 42.3531 32.1293 42.159C32.8824 41.956 33.9402 40.1454 34.9637 40.252C35.4059 40.2939 37.1402 43.1474 37.1402 43.1474C51.2387 43.7247 68.5965 57.609 70.8418 59.0148C71.9231 59.6936 76.4731 63.5342 84.809 66.5134C88.2309 67.7352 91.6699 68.2529 94.8543 68.0664C99.1215 67.8202 103.879 64.7726 106.804 60.6338C110.475 55.4419 112.04 46.4043 122.634 41.2823C124.106 40.5679 127.479 38.9629 129.414 40.9828Z" fill="#333333"/>
</g>
<defs>
<filter id="filter0_d_1_1650" x="16" y="37" width="121.125" height="80.4724" filterUnits="userSpaceOnUse" color-interpolation-filters="sRGB">
<feFlood flood-opacity="0" result="BackgroundImageFix"/>
<feColorMatrix in="SourceAlpha" type="matrix" values="0 0 0 0 0 0 0 0 0 0 0 0 0 0 0 0 0 0 127 0" result="hardAlpha"/>
<feOffset dx="2" dy="2"/>
<feGaussianBlur stdDeviation="2.5"/>
<feComposite in2="hardAlpha" operator="out"/>
<feColorMatrix type="matrix" values="0 0 0 0 0.933333 0 0 0 0 0.439216 0 0 0 0 0.14902 0 0 0 1 0"/>
<feBlend mode="normal" in2="BackgroundImageFix" result="effect1_dropShadow_1_1650"/>
<feBlend mode="normal" in="SourceGraphic" in2="effect1_dropShadow_1_1650" result="shape"/>
</filter>
</defs>
</svg>
