<svg width="37" height="38" viewBox="0 0 37 38" fill="none" xmlns="http://www.w3.org/2000/svg">
<path d="M18.5017 0.726562C13.4774 0.726562 12.8468 0.748532 10.8735 0.838335C8.90399 0.928523 7.55964 1.24033 6.38334 1.69782C5.16656 2.17035 4.13441 2.80244 3.10611 3.83113C2.07703 4.85943 1.44494 5.89158 0.970874 7.10797C0.512224 8.28466 0.200033 9.6294 0.111386 11.5981C0.0231251 13.5715 0 14.2024 0 19.2268C0 24.2511 0.0223548 24.8797 0.111772 26.8531C0.202346 28.8226 0.514151 30.1669 0.97126 31.3432C1.44417 32.56 2.07626 33.5922 3.10495 34.6205C4.13287 35.6495 5.16502 36.2832 6.38102 36.7557C7.5581 37.2132 8.90283 37.525 10.8719 37.6152C12.8453 37.705 13.4755 37.7269 18.4994 37.7269C23.5242 37.7269 24.1528 37.705 26.1261 37.6152C28.0956 37.525 29.4415 37.2132 30.6186 36.7557C31.835 36.2832 32.8656 35.6495 33.8935 34.6205C34.9226 33.5922 35.5547 32.56 36.0287 31.3436C36.4835 30.1669 36.7957 28.8222 36.8882 26.8535C36.9769 24.8801 37 24.2511 37 19.2268C37 14.2024 36.9769 13.5719 36.8882 11.5985C36.7957 9.62901 36.4835 8.28466 36.0287 7.10836C35.5547 5.89158 34.9226 4.85943 33.8935 3.83113C32.8644 2.80205 31.8354 2.16996 30.6174 1.69782C29.438 1.24033 28.0929 0.928523 26.1234 0.838335C24.1501 0.748532 23.5218 0.726562 18.496 0.726562H18.5017ZM16.8421 4.06045C17.3347 4.05968 17.8843 4.06045 18.5017 4.06045C23.4413 4.06045 24.0267 4.07818 25.9774 4.16683C27.7811 4.24931 28.7601 4.55071 29.4122 4.80393C30.2756 5.13924 30.8911 5.54008 31.5382 6.18759C32.1857 6.83509 32.5865 7.45177 32.9226 8.31511C33.1759 8.96647 33.4776 9.94544 33.5597 11.7492C33.6484 13.6994 33.6677 14.2853 33.6677 19.2225C33.6677 24.1598 33.6484 24.7456 33.5597 26.6958C33.4773 28.4996 33.1759 29.4786 32.9226 30.1299C32.5873 30.9933 32.1857 31.608 31.5382 32.2551C30.8907 32.9026 30.2759 33.3035 29.4122 33.6388C28.7609 33.8932 27.7811 34.1938 25.9774 34.2763C24.0271 34.3649 23.4413 34.3842 18.5017 34.3842C13.5618 34.3842 12.9763 34.3649 11.0261 34.2763C9.22235 34.193 8.24338 33.8916 7.59086 33.6384C6.72752 33.3031 6.11084 32.9023 5.46334 32.2547C4.81583 31.6072 4.41499 30.9921 4.07891 30.1284C3.82569 29.477 3.5239 28.498 3.44181 26.6943C3.35316 24.7441 3.33543 24.1582 3.33543 19.2179C3.33543 14.2776 3.35316 13.6948 3.44181 11.7446C3.52429 9.94082 3.82569 8.96185 4.07891 8.30971C4.41422 7.44637 4.81583 6.8297 5.46334 6.18219C6.11084 5.53469 6.72752 5.13385 7.59086 4.79776C8.24299 4.54338 9.22235 4.24276 11.0261 4.15989C12.7328 4.08281 13.3941 4.05968 16.8421 4.05583V4.06045ZM28.377 7.13225C27.1513 7.13225 26.157 8.12548 26.157 9.35151C26.157 10.5771 27.1513 11.5715 28.377 11.5715C29.6026 11.5715 30.597 10.5771 30.597 9.35151C30.597 8.12587 29.6026 7.13148 28.377 7.13148V7.13225ZM18.5017 9.72614C13.255 9.72614 9.00111 13.98 9.00111 19.2268C9.00111 24.4735 13.255 28.7254 18.5017 28.7254C23.7485 28.7254 28.0008 24.4735 28.0008 19.2268C28.0008 13.98 23.7481 9.72614 18.5013 9.72614H18.5017ZM18.5017 13.06C21.9073 13.06 24.6685 15.8208 24.6685 19.2268C24.6685 22.6323 21.9073 25.3935 18.5017 25.3935C15.0958 25.3935 12.335 22.6323 12.335 19.2268C12.335 15.8208 15.0958 13.06 18.5017 13.06Z" fill="#EE7026" fill-opacity="0.5"/>
</svg>
