<svg width="17" height="18" viewBox="0 0 17 18" fill="none" xmlns="http://www.w3.org/2000/svg">
<path d="M12.7578 9.22656C12.7578 11.5738 10.855 13.4766 8.50781 13.4766C6.1606 13.4766 4.25781 11.5738 4.25781 9.22656C4.25781 6.87935 6.1606 4.97656 8.50781 4.97656C10.855 4.97656 12.7578 6.87935 12.7578 9.22656Z" fill="#DDDDDD"/>
<path d="M8.50781 0.726562C8.80122 0.726562 9.03906 0.964411 9.03906 1.25781V3.38281C9.03906 3.67621 8.80122 3.91406 8.50781 3.91406C8.21441 3.91406 7.97656 3.67621 7.97656 3.38281V1.25781C7.97656 0.964411 8.21441 0.726562 8.50781 0.726562Z" fill="#DDDDDD"/>
<path d="M8.50781 14.5391C8.80122 14.5391 9.03906 14.7769 9.03906 15.0703V17.1953C9.03906 17.4887 8.80122 17.7266 8.50781 17.7266C8.21441 17.7266 7.97656 17.4887 7.97656 17.1953V15.0703C7.97656 14.7769 8.21441 14.5391 8.50781 14.5391Z" fill="#DDDDDD"/>
<path d="M17.0078 9.22656C17.0078 9.51996 16.77 9.75781 16.4766 9.75781H14.3516C14.0582 9.75781 13.8203 9.51996 13.8203 9.22656C13.8203 8.93316 14.0582 8.69531 14.3516 8.69531H16.4766C16.77 8.69531 17.0078 8.93316 17.0078 9.22656Z" fill="#DDDDDD"/>
<path d="M3.19531 9.22656C3.19531 9.51996 2.95746 9.75781 2.66406 9.75781H0.539062C0.245661 9.75781 0.00781249 9.51996 0.0078125 9.22656C0.00781251 8.93316 0.245661 8.69531 0.539063 8.69531H2.66406C2.95746 8.69531 3.19531 8.93316 3.19531 9.22656Z" fill="#DDDDDD"/>
<path d="M14.5182 3.21619C14.7257 3.42365 14.7257 3.76002 14.5182 3.96749L13.0156 5.47009C12.8082 5.67756 12.4718 5.67756 12.2643 5.47009C12.0569 5.26263 12.0569 4.92626 12.2643 4.71879L13.7669 3.21619C13.9744 3.00872 14.3108 3.00872 14.5182 3.21619Z" fill="#DDDDDD"/>
<path d="M4.75131 12.9831C4.95877 13.1906 4.95877 13.5269 4.75131 13.7344L3.2487 15.237C3.04124 15.4445 2.70487 15.4445 2.4974 15.237C2.28994 15.0295 2.28994 14.6932 2.4974 14.4857L4.00001 12.9831C4.20747 12.7756 4.54384 12.7756 4.75131 12.9831Z" fill="#DDDDDD"/>
<path d="M14.5182 15.237C14.3108 15.4445 13.9744 15.4445 13.7669 15.237L12.2643 13.7344C12.0569 13.5269 12.0569 13.1906 12.2643 12.9831C12.4718 12.7756 12.8082 12.7756 13.0156 12.9831L14.5182 14.4857C14.7257 14.6932 14.7257 15.0296 14.5182 15.237Z" fill="#DDDDDD"/>
<path d="M4.75131 5.4701C4.54384 5.67757 4.20747 5.67757 4.00001 5.4701L2.4974 3.9675C2.28994 3.76004 2.28994 3.42367 2.49741 3.2162C2.70487 3.00873 3.04124 3.00873 3.24871 3.2162L4.75131 4.7188C4.95877 4.92627 4.95877 5.26264 4.75131 5.4701Z" fill="#DDDDDD"/>
</svg>
