<svg width="13" height="13" viewBox="0 0 13 13" fill="none" xmlns="http://www.w3.org/2000/svg">
<path d="M4.973 0.6409C5.11404 0.809482 5.16219 1.06355 5.03524 1.29193C4.60128 2.07257 4.35465 2.9668 4.35465 3.91838C4.35465 6.9696 6.89279 9.44022 10.0201 9.44022C10.4276 9.44022 10.8246 9.39835 11.207 9.31893C11.4685 9.26462 11.7063 9.38051 11.8338 9.55855C11.9653 9.74224 11.9929 10.0163 11.8096 10.2369C10.6264 11.6607 8.81604 12.5725 6.78694 12.5725C3.21819 12.5725 0.328125 9.75415 0.328125 6.28104C0.328125 3.66713 1.9647 1.42538 4.29429 0.47529C4.56345 0.365519 4.82746 0.466946 4.973 0.6409Z" fill="#333333"/>
<path d="M8.6841 2.81898C8.7351 2.66897 8.95153 2.66897 9.00253 2.81898L9.30233 3.70075C9.43596 4.0938 9.75056 4.40222 10.1515 4.53324L11.0509 4.82716C11.2039 4.87717 11.2039 5.08934 11.0509 5.13935L10.1515 5.43327C9.75056 5.56429 9.43596 5.87272 9.30233 6.26577L9.00253 7.14754C8.95153 7.29754 8.7351 7.29755 8.6841 7.14754L8.38429 6.26576C8.25065 5.87271 7.93606 5.56429 7.53515 5.43327L6.63574 5.13935C6.48273 5.08934 6.48273 4.87717 6.63574 4.82716L7.53516 4.53324C7.93606 4.40222 8.25065 4.0938 8.38429 3.70075L8.6841 2.81898Z" fill="#333333"/>
<path d="M11.0595 0.50469C11.0935 0.404686 11.2378 0.404687 11.2718 0.504691L11.4716 1.09254C11.5607 1.35457 11.7705 1.56019 12.0377 1.64753L12.6373 1.84348C12.7393 1.87682 12.7393 2.01827 12.6373 2.0516L12.0377 2.24755C11.7705 2.3349 11.5607 2.54052 11.4716 2.80255L11.2718 3.3904C11.2378 3.4904 11.0935 3.4904 11.0595 3.3904L10.8596 2.80254C10.7705 2.54051 10.5608 2.3349 10.2935 2.24756L9.69392 2.0516C9.59192 2.01827 9.59192 1.87682 9.69392 1.84348L10.2935 1.64753C10.5608 1.56019 10.7705 1.35457 10.8596 1.09254L11.0595 0.50469Z" fill="#333333"/>
</svg>
