<svg width="39" height="37" viewBox="0 0 39 37" fill="none" xmlns="http://www.w3.org/2000/svg">
<path d="M32.8196 5.96106C29.2148 2.58259 24.4083 0.726562 19.29 0.726562C8.75067 0.726562 0.165107 8.73227 0.155934 18.5598C0.155934 21.7073 1.03651 24.7693 2.70592 27.4807L0 36.7266L10.1449 34.2462C12.9426 35.666 16.0888 36.4187 19.29 36.4187H19.2992C29.8385 36.4187 38.4241 28.413 38.4333 18.5769C38.4241 13.8128 36.4336 9.33098 32.8196 5.96106ZM19.29 33.3994C16.4282 33.3994 13.6305 32.6809 11.1906 31.3296L10.6127 31.0045L4.59548 32.4757L6.20069 27.0017L5.82461 26.4372C4.22857 24.0765 3.39387 21.3481 3.39387 18.5512C3.39387 10.3916 10.5302 3.73725 19.2992 3.73725C23.5461 3.73725 27.5362 5.28537 30.5448 8.08223C33.5443 10.8876 35.1953 14.6082 35.1953 18.5683C35.1861 26.7536 28.0499 33.3994 19.29 33.3994ZM28.0132 22.2975C27.5362 22.0751 25.188 20.9974 24.7477 20.8435C24.3074 20.6981 23.9864 20.6211 23.6745 21.0658C23.3535 21.5106 22.4362 22.5199 22.161 22.8107C21.8859 23.11 21.6015 23.1442 21.1245 22.9219C20.6476 22.6995 19.1066 22.2291 17.2812 20.7066C15.8594 19.5263 14.9055 18.0637 14.6211 17.6189C14.346 17.1742 14.5936 16.9347 14.8321 16.7123C15.0431 16.5156 15.3091 16.1906 15.5476 15.934C15.7861 15.6774 15.8686 15.4892 16.0246 15.1899C16.1805 14.8905 16.1071 14.6339 15.9879 14.4115C15.8686 14.1891 14.9147 11.991 14.5111 11.1015C14.1258 10.2291 13.7314 10.3488 13.4379 10.3402C13.1627 10.3231 12.8417 10.3231 12.5206 10.3231C12.1996 10.3231 11.6859 10.4343 11.2456 10.8791C10.8053 11.3239 9.57621 12.4015 9.57621 14.5997C9.57621 16.7978 11.2915 18.9105 11.53 19.2098C11.7685 19.5092 14.8963 24.0081 19.6936 25.9411C20.831 26.403 21.7207 26.6767 22.4179 26.8819C23.5644 27.2241 24.601 27.1727 25.4265 27.0616C26.3437 26.9333 28.2517 25.9839 28.6552 24.9404C29.0497 23.8969 29.0497 23.0074 28.9304 22.8192C28.8112 22.6311 28.4901 22.5199 28.0132 22.2975Z" fill="#EE7026" fill-opacity="0.5"/>
</svg>
