<svg xmlns="http://www.w3.org/2000/svg" width="420" height="420" fill="none"><g filter="url(#a)"><path fill="#EE7026" d="M10 34.804C10 21.105 21.105 10 34.804 10h330.392C378.895 10 390 21.105 390 34.804v164.701H10z"/><path fill="#924F3F" d="M10 199.503h380v165.693C390 378.895 378.895 390 365.196 390H34.804C21.105 390 10 378.895 10 365.196z"/><path fill="#DDD" d="M342.377 146.919H57.625v106.163h284.752z"/><path fill="#DDD" d="M57.625 89.374c0-8.22 6.663-14.882 14.882-14.882h254.987c8.22 0 14.883 6.663 14.883 14.882v80.366H57.625zM57.625 230.261h284.752v80.366c0 8.219-6.663 14.882-14.883 14.882H72.507c-8.219 0-14.882-6.663-14.882-14.882z"/><path fill="#EE7026" d="M326.503 236.215H73.501c-5.48 0-9.922 4.442-9.922 9.922v63.498c0 5.48 4.442 9.922 9.922 9.922h253.002c5.48 0 9.922-4.442 9.922-9.922v-63.498c0-5.48-4.442-9.922-9.922-9.922"/><path fill="#924F3F" d="M326.566 80.056H73.563c-5.48 0-9.921 4.442-9.921 9.922v63.499c0 5.479 4.442 9.922 9.921 9.922h253.003c5.48 0 9.922-4.443 9.922-9.922v-63.5c0-5.479-4.442-9.92-9.922-9.92"/><path fill="#DDD" d="M114.651 294v-27.44h19.44v3.28h-15.64v8.8h14.24v3.24h-14.24V294zm19.145 0 10.84-27.44h5l10.88 27.44h-4.12l-2.68-6.8h-13.36l-2.64 6.8zm7.8-10.04h10.84l-3.32-8.6q-.12-.36-.36-1t-.52-1.4l-.56-1.6a94 94 0 0 0-.52-1.52h-.24q-.28.8-.64 1.84t-.72 2.04q-.36.96-.6 1.64zm32.705 10.52a21 21 0 0 1-4.32-.44q-2.04-.44-3.64-1.4a7.84 7.84 0 0 1-2.56-2.56q-.92-1.56-.92-3.84v-.4a2 2 0 0 0 .04-.4h3.84q0 .12-.04.4v.44q0 1.6.96 2.72t2.64 1.68q1.72.52 3.88.52.96 0 2-.12 1.08-.12 2.04-.4a7.6 7.6 0 0 0 1.76-.8q.8-.52 1.24-1.24.48-.76.48-1.84 0-1.36-.8-2.24-.759-.92-2.04-1.48-1.28-.6-2.92-1.04a83 83 0 0 0-3.32-.92 45 45 0 0 1-3.36-1 14.6 14.6 0 0 1-2.88-1.44 7.3 7.3 0 0 1-2.08-2.16q-.76-1.28-.76-3.12 0-1.72.68-3.08.72-1.36 2.08-2.28 1.4-.96 3.44-1.44 2.04-.52 4.68-.52 2.16 0 4 .48 1.88.44 3.28 1.4 1.44.92 2.24 2.36t.8 3.48v.48h-3.76v-.6q0-1.36-.84-2.32t-2.32-1.48q-1.44-.52-3.28-.52-2.4 0-4 .48-1.599.44-2.4 1.32-.76.84-.76 1.92 0 1.24.76 2.08.8.84 2.08 1.4 1.28.52 2.92.96t3.32.92a32 32 0 0 1 3.32 1.04q1.64.56 2.92 1.44 1.32.84 2.08 2.16.76 1.28.76 3.16 0 2.92-1.44 4.76-1.44 1.8-3.96 2.64t-5.84.84m16.834-.48v-27.44h3.8v11.76h14.92v-11.76h3.84V294h-3.84v-12.36h-14.92V294zm29.453 0v-27.44h3.8V294zm22.985.48q-4.28 0-7.36-1.56-3.04-1.56-4.72-4.72-1.64-3.16-1.64-7.92 0-4.8 1.64-7.92 1.68-3.16 4.72-4.72 3.08-1.56 7.36-1.56t7.32 1.56q3.08 1.56 4.72 4.72 1.68 3.12 1.68 7.92 0 4.76-1.68 7.92-1.64 3.16-4.72 4.72-3.04 1.56-7.32 1.56m0-3.28q2.24 0 4.04-.6 1.84-.6 3.08-1.88 1.28-1.32 1.96-3.28.68-2 .68-4.72v-.84q0-2.76-.68-4.72-.68-2-1.96-3.28-1.24-1.32-3.08-1.92-1.8-.6-4.04-.6-2.28 0-4.08.6t-3.08 1.92q-1.28 1.28-1.96 3.28-.64 1.96-.64 4.72v.84q0 2.72.64 4.72.68 1.96 1.96 3.28 1.28 1.28 3.08 1.88t4.08.6m19.203 2.8v-27.44h3.68l13.32 18.08q.2.24.52.72l.64.96q.32.44.52.8h.16v-20.56h3.72V294h-3.48l-13.48-18.4a38 38 0 0 0-.84-1.24q-.52-.8-.88-1.28h-.2V294zM159.387 138.48q-4.2 0-7.12-1.52-2.92-1.56-4.48-4.68-1.52-3.16-1.52-8 0-7.16 3.48-10.68t9.68-3.52q3.519 0 6.24 1.16 2.72 1.12 4.24 3.44 1.56 2.28 1.56 5.76h-3.84q0-2.4-1.04-3.96-1-1.56-2.84-2.32-1.84-.8-4.32-.8-2.88 0-4.96 1.12t-3.16 3.48q-1.08 2.32-1.08 6v.84q0 3.64 1.08 5.96 1.08 2.28 3.12 3.36 2.08 1.08 5 1.08 2.56 0 4.4-.76 1.88-.76 2.88-2.32 1.04-1.6 1.04-4h3.72q0 3.56-1.6 5.84-1.56 2.28-4.28 3.4t-6.2 1.12m14.221-.48 10.84-27.44h5l10.88 27.44h-4.12l-2.68-6.8h-13.36l-2.64 6.8zm7.8-10.04h10.84l-3.32-8.6q-.12-.36-.36-1t-.52-1.4l-.56-1.6a94 94 0 0 0-.52-1.52h-.24q-.28.8-.64 1.84t-.72 2.04q-.36.96-.6 1.64zm32.706 10.52q-2.241 0-4.32-.44-2.04-.44-3.64-1.4a7.8 7.8 0 0 1-2.56-2.56q-.92-1.56-.92-3.84v-.4q.04-.2.04-.4h3.84q0 .12-.04.4v.44q0 1.6.96 2.72t2.64 1.68q1.72.52 3.88.52.96 0 2-.12 1.08-.12 2.04-.4a7.7 7.7 0 0 0 1.76-.8q.8-.52 1.24-1.24.48-.76.48-1.84 0-1.36-.8-2.24-.76-.92-2.04-1.48-1.28-.6-2.92-1.04a84 84 0 0 0-3.32-.92 45 45 0 0 1-3.36-1q-1.6-.6-2.88-1.44a7.3 7.3 0 0 1-2.08-2.16q-.76-1.28-.76-3.12 0-1.72.68-3.08.72-1.36 2.08-2.28 1.4-.96 3.44-1.44 2.04-.52 4.68-.52 2.16 0 4 .48 1.88.44 3.28 1.4 1.44.92 2.24 2.36t.8 3.48v.48h-3.76v-.6q0-1.36-.84-2.32t-2.32-1.48q-1.44-.52-3.28-.52-2.4 0-4 .48-1.6.44-2.4 1.32-.76.84-.76 1.92 0 1.24.76 2.08.8.84 2.08 1.4a25 25 0 0 0 2.92.96q1.64.44 3.32.92 1.72.44 3.32 1.04 1.64.56 2.92 1.44a6.2 6.2 0 0 1 2.08 2.16q.76 1.28.76 3.16 0 2.92-1.44 4.76-1.44 1.8-3.96 2.64t-5.84.84m13.674-.48 10.84-27.44h5l10.88 27.44h-4.12l-2.68-6.8h-13.36l-2.64 6.8zm7.8-10.04h10.84l-3.32-8.6q-.12-.36-.36-1t-.52-1.4l-.56-1.6a94 94 0 0 0-.52-1.52h-.24q-.28.8-.64 1.84t-.72 2.04q-.36.96-.6 1.64z"/><path fill="#EE7026" d="M150.61 215.48a21 21 0 0 1-4.32-.44q-2.04-.44-3.64-1.4a7.8 7.8 0 0 1-2.56-2.56q-.92-1.56-.92-3.84v-.4a2 2 0 0 0 .04-.4h3.84q0 .12-.04.4v.44q0 1.6.96 2.72t2.64 1.68q1.72.52 3.88.52.96 0 2-.12 1.08-.12 2.04-.4a7.6 7.6 0 0 0 1.76-.8q.8-.52 1.24-1.24.48-.76.48-1.84 0-1.36-.8-2.24-.76-.92-2.04-1.48a17.7 17.7 0 0 0-2.92-1.04 84 84 0 0 0-3.32-.92 45 45 0 0 1-3.36-1q-1.6-.6-2.88-1.44a7.3 7.3 0 0 1-2.08-2.16q-.76-1.28-.76-3.12 0-1.72.68-3.08.72-1.36 2.08-2.28 1.4-.96 3.44-1.44 2.04-.52 4.68-.52 2.16 0 4 .48 1.88.44 3.28 1.4 1.44.92 2.24 2.36t.8 3.48v.48h-3.76v-.6q0-1.36-.84-2.32t-2.32-1.48q-1.44-.52-3.28-.52-2.4 0-4 .48-1.6.44-2.4 1.32-.76.84-.76 1.92 0 1.24.76 2.08.8.84 2.08 1.4 1.28.52 2.92.96t3.32.92q1.72.44 3.32 1.04a12 12 0 0 1 2.92 1.44 6.2 6.2 0 0 1 2.08 2.16q.76 1.28.76 3.16 0 2.92-1.44 4.76-1.44 1.8-3.96 2.64t-5.84.84m29.154 0q-4.28 0-7.36-1.56-3.04-1.56-4.72-4.72-1.64-3.16-1.64-7.92 0-4.8 1.64-7.92 1.68-3.16 4.72-4.72 3.08-1.56 7.36-1.56t7.32 1.56q3.08 1.56 4.72 4.72 1.68 3.12 1.68 7.92 0 4.76-1.68 7.92-1.64 3.16-4.72 4.72-3.04 1.56-7.32 1.56m0-3.28q2.24 0 4.04-.6 1.84-.6 3.08-1.88 1.28-1.32 1.96-3.28.68-2 .68-4.72v-.84q0-2.76-.68-4.72-.68-2-1.96-3.28-1.24-1.32-3.08-1.92-1.8-.6-4.04-.6-2.28 0-4.08.6t-3.08 1.92q-1.28 1.28-1.96 3.28-.64 1.96-.64 4.72v.84q0 2.72.64 4.72.68 1.96 1.96 3.28 1.28 1.28 3.08 1.88t4.08.6m-6.08-26.64 4.24-5.28h3.64l4.2 5.28h-3.4l-3.52-4.36h1.76l-3.48 4.36zM198.967 215v-27.44h3.68l13.32 18.08q.2.24.52.72l.64.96q.32.44.52.8h.16v-20.56h3.72V215h-3.48l-13.48-18.4a35 35 0 0 0-.84-1.24 24 24 0 0 0-.88-1.28h-.2V215zm29.453 0v-27.44h3.8V215zm7.505 0 10.84-27.44h5l10.88 27.44h-4.12l-2.68-6.8h-13.36l-2.64 6.8zm7.8-10.04h10.84l-3.32-8.6q-.12-.36-.36-1t-.52-1.4l-.56-1.6a94 94 0 0 0-.52-1.52h-.24q-.28.8-.64 1.84t-.72 2.04q-.36.96-.6 1.64z"/></g><defs><filter id="a" width="420" height="420" x="0" y="0" color-interpolation-filters="sRGB" filterUnits="userSpaceOnUse"><feFlood flood-opacity="0" result="BackgroundImageFix"/><feColorMatrix in="SourceAlpha" result="hardAlpha" values="0 0 0 0 0 0 0 0 0 0 0 0 0 0 0 0 0 0 127 0"/><feOffset dx="10" dy="10"/><feGaussianBlur stdDeviation="10"/><feComposite in2="hardAlpha" operator="out"/><feColorMatrix values="0 0 0 0 0 0 0 0 0 0 0 0 0 0 0 0 0 0 0.25 0"/><feBlend in2="BackgroundImageFix" result="effect1_dropShadow_33_776"/><feBlend in="SourceGraphic" in2="effect1_dropShadow_33_776" result="shape"/></filter></defs></svg>