<svg width="37" height="37" viewBox="0 0 37 37" fill="none" xmlns="http://www.w3.org/2000/svg">
<path d="M18.5017 0C13.4774 0 12.8468 0.0219693 10.8735 0.111772C8.90399 0.201961 7.55964 0.513766 6.38334 0.97126C5.16656 1.44379 4.13441 2.07588 3.10611 3.10456C2.07703 4.13287 1.44494 5.16502 0.970874 6.38141C0.512224 7.5581 0.200033 8.90283 0.111386 10.8716C0.0231251 12.8449 0 13.4758 0 18.5002C0 23.5245 0.0223548 24.1532 0.111772 26.1265C0.202346 28.096 0.514151 29.4404 0.97126 30.6167C1.44417 31.8334 2.07626 32.8656 3.10495 33.8939C4.13287 34.923 5.16502 35.5566 6.38102 36.0291C7.5581 36.4866 8.90283 36.7984 10.8719 36.8886C12.8453 36.9784 13.4755 37.0004 18.4994 37.0004C23.5242 37.0004 24.1528 36.9784 26.1261 36.8886C28.0956 36.7984 29.4415 36.4866 30.6186 36.0291C31.835 35.5566 32.8656 34.923 33.8935 33.8939C34.9226 32.8656 35.5547 31.8334 36.0287 30.6171C36.4835 29.4404 36.7957 28.0956 36.8882 26.1269C36.9769 24.1535 37 23.5245 37 18.5002C37 13.4758 36.9769 12.8453 36.8882 10.8719C36.7957 8.90245 36.4835 7.5581 36.0287 6.38179C35.5547 5.16502 34.9226 4.13287 33.8935 3.10456C32.8644 2.07549 31.8354 1.4434 30.6174 0.97126C29.438 0.513766 28.0929 0.201961 26.1234 0.111772C24.1501 0.0219693 23.5218 0 18.496 0H18.5017ZM16.8421 3.33389C17.3347 3.33312 17.8843 3.33389 18.5017 3.33389C23.4413 3.33389 24.0267 3.35162 25.9774 3.44027C27.7811 3.52275 28.7601 3.82414 29.4122 4.07737C30.2756 4.41268 30.8911 4.81352 31.5382 5.46103C32.1857 6.10853 32.5865 6.7252 32.9226 7.58855C33.1759 8.23991 33.4776 9.21888 33.5597 11.0226C33.6484 12.9729 33.6677 13.5587 33.6677 18.496C33.6677 23.4332 33.6484 24.019 33.5597 25.9693C33.4773 27.773 33.1759 28.752 32.9226 29.4034C32.5873 30.2667 32.1857 30.8814 31.5382 31.5286C30.8907 32.1761 30.2759 32.5769 29.4122 32.9122C28.7609 33.1666 27.7811 33.4672 25.9774 33.5497C24.0271 33.6384 23.4413 33.6576 18.5017 33.6576C13.5618 33.6576 12.9763 33.6384 11.0261 33.5497C9.22235 33.4665 8.24338 33.1651 7.59086 32.9118C6.72752 32.5765 6.11084 32.1757 5.46334 31.5282C4.81583 30.8807 4.41499 30.2655 4.07891 29.4018C3.82569 28.7505 3.5239 27.7715 3.44181 25.9677C3.35316 24.0175 3.33543 23.4316 3.33543 18.4913C3.33543 13.551 3.35316 12.9683 3.44181 11.018C3.52429 9.21425 3.82569 8.23528 4.07891 7.58315C4.41422 6.71981 4.81583 6.10314 5.46334 5.45563C6.11084 4.80812 6.72752 4.40729 7.59086 4.0712C8.24299 3.81682 9.22235 3.51619 11.0261 3.43333C12.7328 3.35624 13.3941 3.33312 16.8421 3.32926V3.33389ZM28.377 6.40569C27.1513 6.40569 26.157 7.39892 26.157 8.62494C26.157 9.85058 27.1513 10.845 28.377 10.845C29.6026 10.845 30.597 9.85058 30.597 8.62494C30.597 7.39931 29.6026 6.40492 28.377 6.40492V6.40569ZM18.5017 8.99957C13.255 8.99957 9.00111 13.2535 9.00111 18.5002C9.00111 23.7469 13.255 27.9989 18.5017 27.9989C23.7485 27.9989 28.0008 23.7469 28.0008 18.5002C28.0008 13.2535 23.7481 8.99957 18.5013 8.99957H18.5017ZM18.5017 12.3335C21.9073 12.3335 24.6685 15.0942 24.6685 18.5002C24.6685 21.9058 21.9073 24.6669 18.5017 24.6669C15.0958 24.6669 12.335 21.9058 12.335 18.5002C12.335 15.0942 15.0958 12.3335 18.5017 12.3335Z" fill="#EE7026" fill-opacity="0.8"/>
</svg>
