<svg xmlns="http://www.w3.org/2000/svg" width="150" height="150" fill="none"><path fill="#333" d="M0 0h150v150H0z"/><g filter="url(#a)"><g filter="url(#b)"><mask id="c" width="78" height="78" x="44" y="55" maskUnits="userSpaceOnUse" style="mask-type:luminance"><path fill="#fff" d="M44.114 55.438h77.582v76.655H44.114z"/></mask><g mask="url(#c)"><mask id="d" width="78" height="102" x="44" y="55" maskUnits="userSpaceOnUse" style="mask-type:luminance"><path fill="#fff" d="M44.296 67.007 64.93 55.742l56.476 89.366-20.634 11.264z"/></mask><g mask="url(#d)"><path fill="#DDD" d="M44.296 67.007 64.93 55.742l26.553 42.003H63.715z"/></g></g></g><g filter="url(#e)"><mask id="f" width="74" height="56" x="20" y="77" maskUnits="userSpaceOnUse" style="mask-type:luminance"><path fill="#fff" d="M20 77.195h73.389v54.893H20z"/></mask><g mask="url(#f)"><mask id="g" width="74" height="95" x="20" y="77" maskUnits="userSpaceOnUse" style="mask-type:luminance"><path fill="#fff" d="m20.099 88.663 20.633-11.265 52.508 83.086-20.634 11.264z"/></mask><g mask="url(#g)"><path fill="#DDD" d="m20.099 88.663 20.633-11.265 12.861 20.345H25.824z"/></g></g></g><g filter="url(#h)"><mask id="i" width="73" height="99" x="68" y="34" maskUnits="userSpaceOnUse" style="mask-type:luminance"><path fill="#fff" d="M68.013 34h71.99v98.092h-71.99z"/></mask><g mask="url(#i)"><mask id="j" width="82" height="107" x="68" y="34" maskUnits="userSpaceOnUse" style="mask-type:luminance"><path fill="#fff" d="M68.298 45.342 88.93 34.078l60.446 95.645-20.633 11.266z"/></mask><g mask="url(#j)"><path fill="#DDD" d="M68.298 45.342 88.93 34.078l40.238 63.668h-27.751z"/></g></g></g></g><defs><filter id="a" width="119.07" height="73.668" x="17.099" y="31.078" color-interpolation-filters="sRGB" filterUnits="userSpaceOnUse"><feFlood flood-opacity="0" result="BackgroundImageFix"/><feColorMatrix in="SourceAlpha" result="hardAlpha" values="0 0 0 0 0 0 0 0 0 0 0 0 0 0 0 0 0 0 127 0"/><feOffset dx="2" dy="2"/><feGaussianBlur stdDeviation="2.5"/><feComposite in2="hardAlpha" operator="out"/><feColorMatrix values="0 0 0 0 0.933333 0 0 0 0 0.439216 0 0 0 0 0.14902 0 0 0 1 0"/><feBlend in2="BackgroundImageFix" result="effect1_dropShadow_1_1552"/><feBlend in="SourceGraphic" in2="effect1_dropShadow_1_1552" result="shape"/></filter><filter id="b" width="55.188" height="50.003" x="40.296" y="55.742" color-interpolation-filters="sRGB" filterUnits="userSpaceOnUse"><feFlood flood-opacity="0" result="BackgroundImageFix"/><feColorMatrix in="SourceAlpha" result="hardAlpha" values="0 0 0 0 0 0 0 0 0 0 0 0 0 0 0 0 0 0 127 0"/><feOffset dy="4"/><feGaussianBlur stdDeviation="2"/><feComposite in2="hardAlpha" operator="out"/><feColorMatrix values="0 0 0 0 0 0 0 0 0 0 0 0 0 0 0 0 0 0 0.25 0"/><feBlend in2="BackgroundImageFix" result="effect1_dropShadow_1_1552"/><feBlend in="SourceGraphic" in2="effect1_dropShadow_1_1552" result="shape"/></filter><filter id="e" width="41.495" height="28.345" x="16.099" y="77.398" color-interpolation-filters="sRGB" filterUnits="userSpaceOnUse"><feFlood flood-opacity="0" result="BackgroundImageFix"/><feColorMatrix in="SourceAlpha" result="hardAlpha" values="0 0 0 0 0 0 0 0 0 0 0 0 0 0 0 0 0 0 127 0"/><feOffset dy="4"/><feGaussianBlur stdDeviation="2"/><feComposite in2="hardAlpha" operator="out"/><feColorMatrix values="0 0 0 0 0 0 0 0 0 0 0 0 0 0 0 0 0 0 0.25 0"/><feBlend in2="BackgroundImageFix" result="effect1_dropShadow_1_1552"/><feBlend in="SourceGraphic" in2="effect1_dropShadow_1_1552" result="shape"/></filter><filter id="h" width="68.871" height="71.668" x="64.298" y="34.078" color-interpolation-filters="sRGB" filterUnits="userSpaceOnUse"><feFlood flood-opacity="0" result="BackgroundImageFix"/><feColorMatrix in="SourceAlpha" result="hardAlpha" values="0 0 0 0 0 0 0 0 0 0 0 0 0 0 0 0 0 0 127 0"/><feOffset dy="4"/><feGaussianBlur stdDeviation="2"/><feComposite in2="hardAlpha" operator="out"/><feColorMatrix values="0 0 0 0 0 0 0 0 0 0 0 0 0 0 0 0 0 0 0.25 0"/><feBlend in2="BackgroundImageFix" result="effect1_dropShadow_1_1552"/><feBlend in="SourceGraphic" in2="effect1_dropShadow_1_1552" result="shape"/></filter></defs></svg>