<svg xmlns="http://www.w3.org/2000/svg" width="150" height="150" fill="none"><path fill="#333" d="M0 0h150v150H0z"/><g filter="url(#a)"><path fill="#DDD" fill-rule="evenodd" d="M129.414 40.983c1.568 1.629.283 4.338-1.355 5.63-1.019.809-2.894 1.636-6.441 3.004-1.193.462-3.164 1.665-3.929 2.14-3.799 2.373-6.561 7.726-9.63 13.593 0 0-1.298 2.881-7.066 5.987-.964.517-.092.948.96 2.06 1.365 1.442 4.081 7.413 3.734 16.476-.061 1.604.736 2.302 1.633 3.612 1.57 2.278 4.644 1.78 4.566 4.75-.097 4.01 3.521 4.864 2.367 6.709-.85 1.351-.564 2.65-.556 3.96.003.667.445 1.643-1.254 1.564-6.897-.332-6.437-7.884-6.314-10.479.119-.34-.204-.958-.256-.987-.333-.2-4.648-2.922-4.931-3.158-5.227-4.328-8.667-8.214-10.594-12.213-1.275-2.657-2.587-5.298-4.825-6.972-2.5-1.878-5.597-2.92-8.294-2.933-19.212-.083-23.157-6.946-28.39-10.376-.149-.091-.63-.302-.916-.323-.283.021-.522.307-.702.43-2.014 1.713-4.053 2.288-6.787 2.288-6.486 0-13.477-4.642-14.698-3.604-.94.805-.136 2.459-1.852 2.738-2.503.407-5.083-1.6-4.872-3.299.374-3.047 4.197-3.937 7.552-4.24 2.775-.25 5.04.368 5.562.426 1.555.168 1.822-1.357 1.563-2.35-.278-1.058-1.513-1.283-2.786-1.59-1.552-.372-3.275.672-4.44.34-1.363-.386-1.456-.958-2.6-1.772-1.423-1.016-3.087-1.286-3.084-2.731 0-1.317 1.978-1.43 2.557-2.658.282-.6.195-1.239.445-1.604.676-.998 1.928-.947 2.945-1.761 1.375-1.107 2.055-3.252 2.777-3.342.72-.092 1.914 2.055 2.626 1.861.753-.203 1.811-2.014 2.835-1.907.442.042 2.176 2.895 2.176 2.895 14.099.578 31.457 14.462 33.702 15.868 1.081.679 5.631 4.52 13.967 7.498 3.422 1.222 6.86 1.74 10.045 1.553 4.267-.246 9.025-3.293 11.95-7.432 3.671-5.192 5.236-14.23 15.83-19.352 1.472-.714 4.845-2.32 6.78-.3" clip-rule="evenodd"/></g><defs><filter id="a" width="121.125" height="80.472" x="16" y="37" color-interpolation-filters="sRGB" filterUnits="userSpaceOnUse"><feFlood flood-opacity="0" result="BackgroundImageFix"/><feColorMatrix in="SourceAlpha" result="hardAlpha" values="0 0 0 0 0 0 0 0 0 0 0 0 0 0 0 0 0 0 127 0"/><feOffset dx="2" dy="2"/><feGaussianBlur stdDeviation="2.5"/><feComposite in2="hardAlpha" operator="out"/><feColorMatrix values="0 0 0 0 0.933333 0 0 0 0 0.439216 0 0 0 0 0.14902 0 0 0 1 0"/><feBlend in2="BackgroundImageFix" result="effect1_dropShadow_1_1583"/><feBlend in="SourceGraphic" in2="effect1_dropShadow_1_1583" result="shape"/></filter></defs></svg>