<svg xmlns="http://www.w3.org/2000/svg" width="150" height="150" fill="none"><path fill="#DDD" d="M0 0h150v150H0z"/><g filter="url(#a)"><path fill="#333" d="m52.614 83.637-5.1 8.478-28.356-1.577 2.857-4.732zm20.603-27.203 2.653 9.462-40.392-2.563 2.857-4.73zM46.495 45h23.662l1.835 6.505-28.15-1.773L46.698 45zm-2.04 52.437-4.08 6.702H11l2.855-4.73zM95.86 79.104 88.721 90.93h6.73c3.06 0 8.773-1.577 10.404-5.717 1.632-3.942-1.428-6.11-3.467-6.11h-6.732zm6.935-11.236h5.917c3.875 0 7.751-1.775 9.588-5.324 1.428-3.153-.409-5.913-2.857-5.913h-5.712l-6.732 11.237zm-26.722-1.972 5.916-9.857 20.194-1.182.612-1.183-18.562-1.184 4.283-7.293h34.679c10.607 0 18.564 3.746 15.504 14.39-1.021 3.154-5.304 11.435-17.952 14.785 5.304.591 8.976 5.125 8.364 10.25v.395c-2.041 13.011-19.787 19.318-29.579 19.318H58.734l-2.04-7.49 21.418-1.38.817-1.182-23.255-1.38-2.447-9.069 33.045-1.773.816-1.184-59.36-3.548 2.855-4.73 63.849-3.943.816-1.183L76.48 66.29z"/></g><defs><filter id="a" width="138.36" height="69.335" x="8" y="42" color-interpolation-filters="sRGB" filterUnits="userSpaceOnUse"><feFlood flood-opacity="0" result="BackgroundImageFix"/><feColorMatrix in="SourceAlpha" result="hardAlpha" values="0 0 0 0 0 0 0 0 0 0 0 0 0 0 0 0 0 0 127 0"/><feOffset dx="2" dy="2"/><feGaussianBlur stdDeviation="2.5"/><feComposite in2="hardAlpha" operator="out"/><feColorMatrix values="0 0 0 0 0.933333 0 0 0 0 0.439216 0 0 0 0 0.14902 0 0 0 1 0"/><feBlend in2="BackgroundImageFix" result="effect1_dropShadow_1_1677"/><feBlend in="SourceGraphic" in2="effect1_dropShadow_1_1677" result="shape"/></filter></defs></svg>