<svg xmlns="http://www.w3.org/2000/svg" width="150" height="150" fill="none"><path fill="#333" d="M0 0h150v150H0z"/><g filter="url(#a)"><mask id="b" width="120" height="45" x="15" y="53" maskUnits="userSpaceOnUse" style="mask-type:luminance"><path fill="#fff" d="M15 53h120v45H15z"/></mask><g mask="url(#b)"><path fill="#DDD" fill-rule="evenodd" d="M63.575 79.042A61.5 61.5 0 0 0 80.28 77.27c-3.474 2.508-6.543 7.065-6.887 10.556a33 33 0 0 0-4.453-4.866 33.6 33.6 0 0 0-5.362-3.916m20.388 18.804c-1.463-4.54-3.624-14.708 5.669-21.02 6.639-4.506 26.792-9.828 37.589-13.653L134.989 53a170 170 0 0 1-25.77 10.032c-19.525 5.783-31.211 9.215-46.259 9.5-10.828.205-10.978-4.735-.447-13.594a346 346 0 0 1-47.365 13.808c16.943.46 29.807 3.792 37.537 8.136 11.007 6.181 13.679 12.671 14.916 16.962z" clip-rule="evenodd"/></g></g><defs><filter id="a" width="129.841" height="54.847" x="12.148" y="50" color-interpolation-filters="sRGB" filterUnits="userSpaceOnUse"><feFlood flood-opacity="0" result="BackgroundImageFix"/><feColorMatrix in="SourceAlpha" result="hardAlpha" values="0 0 0 0 0 0 0 0 0 0 0 0 0 0 0 0 0 0 127 0"/><feOffset dx="2" dy="2"/><feGaussianBlur stdDeviation="2.5"/><feComposite in2="hardAlpha" operator="out"/><feColorMatrix values="0 0 0 0 0.933333 0 0 0 0 0.439216 0 0 0 0 0.14902 0 0 0 1 0"/><feBlend in2="BackgroundImageFix" result="effect1_dropShadow_1_1587"/><feBlend in="SourceGraphic" in2="effect1_dropShadow_1_1587" result="shape"/></filter></defs></svg>