<svg width="50" height="50" viewBox="0 0 50 50" fill="none" xmlns="http://www.w3.org/2000/svg">
<path d="M0 10C0 4.47715 4.47715 0 10 0H40C45.5228 0 50 4.47715 50 10V40C50 45.5228 45.5228 50 40 50H10C4.47715 50 0 45.5228 0 40V10Z" fill="#EE7026" fill-opacity="0.5"/>
<path fill-rule="evenodd" clip-rule="evenodd" d="M24.3813 15.6313C24.723 15.2896 25.277 15.2896 25.6187 15.6313L36.1187 26.1313C36.4604 26.473 36.4604 27.027 36.1187 27.3687C35.777 27.7104 35.223 27.7104 34.8813 27.3687L25 17.4874L15.1187 27.3687C14.777 27.7104 14.223 27.7104 13.8813 27.3687C13.5396 27.027 13.5396 26.473 13.8813 26.1313L24.3813 15.6313Z" fill="black"/>
<path fill-rule="evenodd" clip-rule="evenodd" d="M24.3813 22.6313C24.723 22.2896 25.277 22.2896 25.6187 22.6313L36.1187 33.1313C36.4604 33.473 36.4604 34.027 36.1187 34.3687C35.777 34.7104 35.223 34.7104 34.8813 34.3687L25 24.4874L15.1187 34.3687C14.777 34.7104 14.223 34.7104 13.8813 34.3687C13.5396 34.027 13.5396 33.473 13.8813 33.1313L24.3813 22.6313Z" fill="black"/>
</svg>
