<svg width="25" height="22" viewBox="0 0 25 22" fill="none" xmlns="http://www.w3.org/2000/svg">
<path fill-rule="evenodd" clip-rule="evenodd" d="M11.5607 1.24884C11.928 0.882548 12.5236 0.882548 12.8909 1.24884L24.1776 12.5043C24.5449 12.8706 24.5449 13.4645 24.1776 13.8308C23.8103 14.1971 23.2148 14.1971 22.8474 13.8308L12.2258 3.23854L1.60417 13.8308C1.23686 14.1971 0.64133 14.1971 0.274019 13.8308C-0.0932927 13.4645 -0.0932927 12.8706 0.274019 12.5043L11.5607 1.24884Z" fill="#EE7026"/>
<path fill-rule="evenodd" clip-rule="evenodd" d="M11.5607 8.75128C11.928 8.38499 12.5236 8.38499 12.8909 8.75128L24.1776 20.0067C24.5449 20.373 24.5449 20.9669 24.1776 21.3332C23.8103 21.6995 23.2148 21.6995 22.8474 21.3332L12.2258 10.741L1.60417 21.3332C1.23686 21.6995 0.64133 21.6995 0.274019 21.3332C-0.0932927 20.9669 -0.0932927 20.373 0.274019 20.0067L11.5607 8.75128Z" fill="#EE7026"/>
</svg>
