<svg width="25" height="22" viewBox="0 0 25 22" fill="none" xmlns="http://www.w3.org/2000/svg">
<path fill-rule="evenodd" clip-rule="evenodd" d="M12.8909 21.3332C12.5236 21.6995 11.9281 21.6995 11.5608 21.3332L0.274061 10.0777C-0.0932484 9.71145 -0.0932484 9.11757 0.274061 8.75127C0.641375 8.38498 1.2369 8.38498 1.60422 8.75127L12.2259 19.3435L22.8475 8.75127C23.2148 8.38498 23.8103 8.38498 24.1776 8.75127C24.545 9.11757 24.545 9.71145 24.1776 10.0777L12.8909 21.3332Z" fill="#EE7026"/>
<path fill-rule="evenodd" clip-rule="evenodd" d="M12.8909 13.8307C12.5236 14.197 11.9281 14.197 11.5608 13.8307L0.274061 2.5753C-0.0932484 2.20901 -0.0932484 1.61513 0.274061 1.24883C0.641375 0.882539 1.2369 0.882539 1.60422 1.24883L12.2259 11.841L22.8475 1.24883C23.2148 0.882539 23.8103 0.882539 24.1776 1.24883C24.545 1.61513 24.545 2.20901 24.1776 2.5753L12.8909 13.8307Z" fill="#EE7026"/>
</svg>
