<svg width="17" height="17" viewBox="0 0 17 17" fill="none" xmlns="http://www.w3.org/2000/svg">
<path d="M12.7542 8.5C12.7542 10.8472 10.8514 12.75 8.50415 12.75C6.15694 12.75 4.25415 10.8472 4.25415 8.5C4.25415 6.15279 6.15694 4.25 8.50415 4.25C10.8514 4.25 12.7542 6.15279 12.7542 8.5Z" fill="#DDDDDD"/>
<path d="M8.50415 0C8.79755 0 9.0354 0.237849 9.0354 0.53125V2.65625C9.0354 2.94965 8.79755 3.1875 8.50415 3.1875C8.21075 3.1875 7.9729 2.94965 7.9729 2.65625V0.53125C7.9729 0.237849 8.21075 0 8.50415 0Z" fill="#DDDDDD"/>
<path d="M8.50415 13.8125C8.79755 13.8125 9.0354 14.0503 9.0354 14.3438V16.4688C9.0354 16.7622 8.79755 17 8.50415 17C8.21075 17 7.9729 16.7622 7.9729 16.4688V14.3438C7.9729 14.0503 8.21075 13.8125 8.50415 13.8125Z" fill="#DDDDDD"/>
<path d="M17.0042 8.5C17.0042 8.7934 16.7663 9.03125 16.4729 9.03125H14.3479C14.0545 9.03125 13.8167 8.7934 13.8167 8.5C13.8167 8.2066 14.0545 7.96875 14.3479 7.96875H16.4729C16.7663 7.96875 17.0042 8.2066 17.0042 8.5Z" fill="#DDDDDD"/>
<path d="M3.19165 8.5C3.19165 8.7934 2.9538 9.03125 2.6604 9.03125H0.5354C0.241999 9.03125 0.00415038 8.7934 0.00415039 8.5C0.0041504 8.2066 0.241999 7.96875 0.5354 7.96875H2.6604C2.9538 7.96875 3.19165 8.2066 3.19165 8.5Z" fill="#DDDDDD"/>
<path d="M14.5146 2.48963C14.722 2.69709 14.722 3.03346 14.5146 3.24093L13.012 4.74353C12.8045 4.95099 12.4681 4.95099 12.2607 4.74353C12.0532 4.53606 12.0532 4.19969 12.2607 3.99223L13.7633 2.48963C13.9707 2.28216 14.3071 2.28216 14.5146 2.48963Z" fill="#DDDDDD"/>
<path d="M4.74764 12.2565C4.95511 12.464 4.95511 12.8004 4.74764 13.0078L3.24504 14.5104C3.03758 14.7179 2.70121 14.7179 2.49374 14.5104C2.28628 14.303 2.28628 13.9666 2.49374 13.7591L3.99634 12.2565C4.20381 12.0491 4.54018 12.0491 4.74764 12.2565Z" fill="#DDDDDD"/>
<path d="M14.5146 14.5105C14.3071 14.7179 13.9707 14.7179 13.7633 14.5105L12.2607 13.0079C12.0532 12.8004 12.0532 12.464 12.2607 12.2566C12.4681 12.0491 12.8045 12.0491 13.012 12.2566L14.5146 13.7592C14.722 13.9666 14.722 14.303 14.5146 14.5105Z" fill="#DDDDDD"/>
<path d="M4.74765 4.74354C4.54018 4.95101 4.20381 4.95101 3.99634 4.74354L2.49374 3.24094C2.28628 3.03347 2.28628 2.6971 2.49374 2.48964C2.70121 2.28217 3.03758 2.28217 3.24504 2.48964L4.74765 3.99224C4.95511 4.19971 4.95511 4.53608 4.74765 4.74354Z" fill="#DDDDDD"/>
</svg>
