<svg width="39" height="36" viewBox="0 0 39 36" fill="none" xmlns="http://www.w3.org/2000/svg">
<path d="M32.8196 5.2345C29.2148 1.85602 24.4083 0 19.29 0C8.75067 0 0.165107 8.0057 0.155934 17.8332C0.155934 20.9808 1.03651 24.0428 2.70592 26.7541L0 36L10.1449 33.5196C12.9426 34.9394 16.0888 35.6921 19.29 35.6921H19.2992C29.8385 35.6921 38.4241 27.6864 38.4333 17.8503C38.4241 13.0862 36.4336 8.60442 32.8196 5.2345ZM19.29 32.6728C16.4282 32.6728 13.6305 31.9544 11.1906 30.603L10.6127 30.278L4.59548 31.7491L6.20069 26.2751L5.82461 25.7106C4.22857 23.35 3.39387 20.6215 3.39387 17.8247C3.39387 9.665 10.5302 3.01069 19.2992 3.01069C23.5461 3.01069 27.5362 4.5588 30.5448 7.35567C33.5443 10.1611 35.1953 13.8817 35.1953 17.8418C35.1861 26.0271 28.0499 32.6728 19.29 32.6728ZM28.0132 21.5709C27.5362 21.3485 25.188 20.2708 24.7477 20.1169C24.3074 19.9715 23.9864 19.8945 23.6745 20.3393C23.3535 20.784 22.4362 21.7933 22.161 22.0841C21.8859 22.3835 21.6015 22.4177 21.1245 22.1953C20.6476 21.9729 19.1066 21.5025 17.2812 19.98C15.8594 18.7997 14.9055 17.3371 14.6211 16.8924C14.346 16.4476 14.5936 16.2081 14.8321 15.9857C15.0431 15.789 15.3091 15.464 15.5476 15.2074C15.7861 14.9508 15.8686 14.7627 16.0246 14.4633C16.1805 14.1639 16.1071 13.9073 15.9879 13.685C15.8686 13.4626 14.9147 11.2644 14.5111 10.3749C14.1258 9.5025 13.7314 9.62224 13.4379 9.61369C13.1627 9.59658 12.8417 9.59658 12.5206 9.59658C12.1996 9.59658 11.6859 9.70777 11.2456 10.1525C10.8053 10.5973 9.57621 11.675 9.57621 13.8731C9.57621 16.0713 11.2915 18.1839 11.53 18.4833C11.7685 18.7826 14.8963 23.2815 19.6936 25.2145C20.831 25.6764 21.7207 25.9501 22.4179 26.1554C23.5644 26.4975 24.601 26.4462 25.4265 26.335C26.3437 26.2067 28.2517 25.2573 28.6552 24.2138C29.0497 23.1704 29.0497 22.2808 28.9304 22.0927C28.8112 21.9045 28.4901 21.7933 28.0132 21.5709Z" fill="#EE7026" fill-opacity="0.8"/>
</svg>
