<svg width="420" height="420" viewBox="0 0 420 420" fill="none" xmlns="http://www.w3.org/2000/svg">
<g filter="url(#filter0_d_33_776)">
<path d="M10 34.8043C10 21.1053 21.1052 10 34.8042 10H365.196C378.895 10 390 21.1053 390 34.8043V199.505H10V34.8043Z" fill="#EE7026"/>
<path d="M10 199.503H390V365.196C390 378.895 378.895 390 365.196 390H34.8042C21.1052 390 10 378.895 10 365.196V199.503Z" fill="#924F3F"/>
<path d="M342.377 146.919H57.625V253.082H342.377V146.919Z" fill="#DDDDDD"/>
<path d="M57.625 89.3743C57.625 81.1548 64.2881 74.4917 72.5075 74.4917H327.494C335.714 74.4917 342.377 81.1548 342.377 89.3743V169.74H57.625V89.3743Z" fill="#DDDDDD"/>
<path d="M57.625 230.261H342.377V310.627C342.377 318.846 335.714 325.509 327.494 325.509H72.5075C64.2881 325.509 57.625 318.846 57.625 310.627V230.261Z" fill="#DDDDDD"/>
<path d="M326.503 236.215H73.5008C68.0212 236.215 63.5791 240.657 63.5791 246.137V309.635C63.5791 315.115 68.0212 319.557 73.5008 319.557H326.503C331.983 319.557 336.425 315.115 336.425 309.635V246.137C336.425 240.657 331.983 236.215 326.503 236.215Z" fill="#EE7026"/>
<path d="M326.566 80.0562H73.5633C68.0837 80.0562 63.6416 84.4983 63.6416 89.9779V153.477C63.6416 158.956 68.0837 163.399 73.5633 163.399H326.566C332.046 163.399 336.488 158.956 336.488 153.477V89.9779C336.488 84.4983 332.046 80.0562 326.566 80.0562Z" fill="#924F3F"/>
<path d="M114.651 294V266.56H134.091V269.84H118.451V278.64H132.691V281.88H118.451V294H114.651ZM133.796 294L144.636 266.56H149.636L160.516 294H156.396L153.716 287.2H140.356L137.716 294H133.796ZM141.596 283.96H152.436L149.116 275.36C149.036 275.12 148.916 274.787 148.756 274.36C148.596 273.933 148.422 273.467 148.236 272.96C148.049 272.427 147.862 271.893 147.676 271.36C147.489 270.8 147.316 270.293 147.156 269.84H146.916C146.729 270.373 146.516 270.987 146.276 271.68C146.036 272.373 145.796 273.053 145.556 273.72C145.316 274.36 145.116 274.907 144.956 275.36L141.596 283.96ZM174.301 294.48C172.808 294.48 171.368 294.333 169.981 294.04C168.621 293.747 167.408 293.28 166.341 292.64C165.275 291.973 164.421 291.12 163.781 290.08C163.168 289.04 162.861 287.76 162.861 286.24C162.861 286.107 162.861 285.973 162.861 285.84C162.888 285.707 162.901 285.573 162.901 285.44H166.741C166.741 285.52 166.728 285.653 166.701 285.84C166.701 286 166.701 286.147 166.701 286.28C166.701 287.347 167.021 288.253 167.661 289C168.301 289.747 169.181 290.307 170.301 290.68C171.448 291.027 172.741 291.2 174.181 291.2C174.821 291.2 175.488 291.16 176.181 291.08C176.901 291 177.581 290.867 178.221 290.68C178.888 290.467 179.475 290.2 179.981 289.88C180.515 289.533 180.928 289.12 181.221 288.64C181.541 288.133 181.701 287.52 181.701 286.8C181.701 285.893 181.435 285.147 180.901 284.56C180.395 283.947 179.715 283.453 178.861 283.08C178.008 282.68 177.035 282.333 175.941 282.04C174.875 281.72 173.768 281.413 172.621 281.12C171.475 280.827 170.355 280.493 169.261 280.12C168.195 279.72 167.235 279.24 166.381 278.68C165.528 278.093 164.835 277.373 164.301 276.52C163.795 275.667 163.541 274.627 163.541 273.4C163.541 272.253 163.768 271.227 164.221 270.32C164.701 269.413 165.395 268.653 166.301 268.04C167.235 267.4 168.381 266.92 169.741 266.6C171.101 266.253 172.661 266.08 174.421 266.08C175.861 266.08 177.195 266.24 178.421 266.56C179.675 266.853 180.768 267.32 181.701 267.96C182.661 268.573 183.408 269.36 183.941 270.32C184.475 271.28 184.741 272.44 184.741 273.8V274.28H180.981V273.68C180.981 272.773 180.701 272 180.141 271.36C179.581 270.72 178.808 270.227 177.821 269.88C176.861 269.533 175.768 269.36 174.541 269.36C172.941 269.36 171.608 269.52 170.541 269.84C169.475 270.133 168.675 270.573 168.141 271.16C167.635 271.72 167.381 272.36 167.381 273.08C167.381 273.907 167.635 274.6 168.141 275.16C168.675 275.72 169.368 276.187 170.221 276.56C171.075 276.907 172.048 277.227 173.141 277.52C174.235 277.813 175.341 278.12 176.461 278.44C177.608 278.733 178.715 279.08 179.781 279.48C180.875 279.853 181.848 280.333 182.701 280.92C183.581 281.48 184.275 282.2 184.781 283.08C185.288 283.933 185.541 284.987 185.541 286.24C185.541 288.187 185.061 289.773 184.101 291C183.141 292.2 181.821 293.08 180.141 293.64C178.461 294.2 176.515 294.48 174.301 294.48ZM191.135 294V266.56H194.935V278.32H209.855V266.56H213.695V294H209.855V281.64H194.935V294H191.135ZM220.588 294V266.56H224.388V294H220.588ZM243.573 294.48C240.719 294.48 238.266 293.96 236.213 292.92C234.186 291.88 232.613 290.307 231.493 288.2C230.399 286.093 229.853 283.453 229.853 280.28C229.853 277.08 230.399 274.44 231.493 272.36C232.613 270.253 234.186 268.68 236.213 267.64C238.266 266.6 240.719 266.08 243.573 266.08C246.426 266.08 248.866 266.6 250.893 267.64C252.946 268.68 254.519 270.253 255.613 272.36C256.733 274.44 257.293 277.08 257.293 280.28C257.293 283.453 256.733 286.093 255.613 288.2C254.519 290.307 252.946 291.88 250.893 292.92C248.866 293.96 246.426 294.48 243.573 294.48ZM243.573 291.2C245.066 291.2 246.413 291 247.613 290.6C248.839 290.2 249.866 289.573 250.693 288.72C251.546 287.84 252.199 286.747 252.653 285.44C253.106 284.107 253.333 282.533 253.333 280.72V279.88C253.333 278.04 253.106 276.467 252.653 275.16C252.199 273.827 251.546 272.733 250.693 271.88C249.866 271 248.839 270.36 247.613 269.96C246.413 269.56 245.066 269.36 243.573 269.36C242.053 269.36 240.693 269.56 239.493 269.96C238.293 270.36 237.266 271 236.413 271.88C235.559 272.733 234.906 273.827 234.453 275.16C234.026 276.467 233.813 278.04 233.813 279.88V280.72C233.813 282.533 234.026 284.107 234.453 285.44C234.906 286.747 235.559 287.84 236.413 288.72C237.266 289.573 238.293 290.2 239.493 290.6C240.693 291 242.053 291.2 243.573 291.2ZM262.776 294V266.56H266.456L279.776 284.64C279.909 284.8 280.083 285.04 280.296 285.36C280.509 285.68 280.723 286 280.936 286.32C281.149 286.613 281.323 286.88 281.456 287.12H281.616C281.616 286.693 281.616 286.28 281.616 285.88C281.616 285.453 281.616 285.04 281.616 284.64V266.56H285.336V294H281.856L268.376 275.6C268.189 275.307 267.909 274.893 267.536 274.36C267.189 273.827 266.896 273.4 266.656 273.08H266.456C266.456 273.507 266.456 273.933 266.456 274.36C266.456 274.76 266.456 275.173 266.456 275.6V294H262.776Z" fill="#DDDDDD"/>
<path d="M159.387 138.48C156.587 138.48 154.213 137.973 152.267 136.96C150.32 135.92 148.827 134.36 147.787 132.28C146.773 130.173 146.267 127.507 146.267 124.28C146.267 119.507 147.427 115.947 149.747 113.6C152.067 111.253 155.293 110.08 159.427 110.08C161.773 110.08 163.853 110.467 165.667 111.24C167.48 111.987 168.893 113.133 169.907 114.68C170.947 116.2 171.467 118.12 171.467 120.44H167.627C167.627 118.84 167.28 117.52 166.587 116.48C165.92 115.44 164.973 114.667 163.747 114.16C162.52 113.627 161.08 113.36 159.427 113.36C157.507 113.36 155.853 113.733 154.467 114.48C153.08 115.227 152.027 116.387 151.307 117.96C150.587 119.507 150.227 121.507 150.227 123.96V124.8C150.227 127.227 150.587 129.213 151.307 130.76C152.027 132.28 153.067 133.4 154.427 134.12C155.813 134.84 157.48 135.2 159.427 135.2C161.133 135.2 162.6 134.947 163.827 134.44C165.08 133.933 166.04 133.16 166.707 132.12C167.4 131.053 167.747 129.72 167.747 128.12H171.467C171.467 130.493 170.933 132.44 169.867 133.96C168.827 135.48 167.4 136.613 165.587 137.36C163.773 138.107 161.707 138.48 159.387 138.48ZM173.608 138L184.448 110.56H189.448L200.328 138H196.208L193.528 131.2H180.168L177.528 138H173.608ZM181.408 127.96H192.248L188.928 119.36C188.848 119.12 188.728 118.787 188.568 118.36C188.408 117.933 188.235 117.467 188.048 116.96C187.861 116.427 187.675 115.893 187.488 115.36C187.301 114.8 187.128 114.293 186.968 113.84H186.728C186.541 114.373 186.328 114.987 186.088 115.68C185.848 116.373 185.608 117.053 185.368 117.72C185.128 118.36 184.928 118.907 184.768 119.36L181.408 127.96ZM214.114 138.48C212.62 138.48 211.18 138.333 209.794 138.04C208.434 137.747 207.22 137.28 206.154 136.64C205.087 135.973 204.234 135.12 203.594 134.08C202.98 133.04 202.674 131.76 202.674 130.24C202.674 130.107 202.674 129.973 202.674 129.84C202.7 129.707 202.714 129.573 202.714 129.44H206.554C206.554 129.52 206.54 129.653 206.514 129.84C206.514 130 206.514 130.147 206.514 130.28C206.514 131.347 206.834 132.253 207.474 133C208.114 133.747 208.994 134.307 210.114 134.68C211.26 135.027 212.554 135.2 213.994 135.2C214.634 135.2 215.3 135.16 215.994 135.08C216.714 135 217.394 134.867 218.034 134.68C218.7 134.467 219.287 134.2 219.794 133.88C220.327 133.533 220.74 133.12 221.034 132.64C221.354 132.133 221.514 131.52 221.514 130.8C221.514 129.893 221.247 129.147 220.714 128.56C220.207 127.947 219.527 127.453 218.674 127.08C217.82 126.68 216.847 126.333 215.754 126.04C214.687 125.72 213.58 125.413 212.434 125.12C211.287 124.827 210.167 124.493 209.074 124.12C208.007 123.72 207.047 123.24 206.194 122.68C205.34 122.093 204.647 121.373 204.114 120.52C203.607 119.667 203.354 118.627 203.354 117.4C203.354 116.253 203.58 115.227 204.034 114.32C204.514 113.413 205.207 112.653 206.114 112.04C207.047 111.4 208.194 110.92 209.554 110.6C210.914 110.253 212.474 110.08 214.234 110.08C215.674 110.08 217.007 110.24 218.234 110.56C219.487 110.853 220.58 111.32 221.514 111.96C222.474 112.573 223.22 113.36 223.754 114.32C224.287 115.28 224.554 116.44 224.554 117.8V118.28H220.794V117.68C220.794 116.773 220.514 116 219.954 115.36C219.394 114.72 218.62 114.227 217.634 113.88C216.674 113.533 215.58 113.36 214.354 113.36C212.754 113.36 211.42 113.52 210.354 113.84C209.287 114.133 208.487 114.573 207.954 115.16C207.447 115.72 207.194 116.36 207.194 117.08C207.194 117.907 207.447 118.6 207.954 119.16C208.487 119.72 209.18 120.187 210.034 120.56C210.887 120.907 211.86 121.227 212.954 121.52C214.047 121.813 215.154 122.12 216.274 122.44C217.42 122.733 218.527 123.08 219.594 123.48C220.687 123.853 221.66 124.333 222.514 124.92C223.394 125.48 224.087 126.2 224.594 127.08C225.1 127.933 225.354 128.987 225.354 130.24C225.354 132.187 224.874 133.773 223.914 135C222.954 136.2 221.634 137.08 219.954 137.64C218.274 138.2 216.327 138.48 214.114 138.48ZM227.788 138L238.628 110.56H243.628L254.508 138H250.388L247.708 131.2H234.348L231.708 138H227.788ZM235.588 127.96H246.428L243.108 119.36C243.028 119.12 242.908 118.787 242.748 118.36C242.588 117.933 242.414 117.467 242.228 116.96C242.041 116.427 241.854 115.893 241.668 115.36C241.481 114.8 241.308 114.293 241.148 113.84H240.908C240.721 114.373 240.508 114.987 240.268 115.68C240.028 116.373 239.788 117.053 239.548 117.72C239.308 118.36 239.108 118.907 238.948 119.36L235.588 127.96Z" fill="#DDDDDD"/>
<path d="M150.61 215.48C149.117 215.48 147.677 215.333 146.29 215.04C144.93 214.747 143.717 214.28 142.65 213.64C141.583 212.973 140.73 212.12 140.09 211.08C139.477 210.04 139.17 208.76 139.17 207.24C139.17 207.107 139.17 206.973 139.17 206.84C139.197 206.707 139.21 206.573 139.21 206.44H143.05C143.05 206.52 143.037 206.653 143.01 206.84C143.01 207 143.01 207.147 143.01 207.28C143.01 208.347 143.33 209.253 143.97 210C144.61 210.747 145.49 211.307 146.61 211.68C147.757 212.027 149.05 212.2 150.49 212.2C151.13 212.2 151.797 212.16 152.49 212.08C153.21 212 153.89 211.867 154.53 211.68C155.197 211.467 155.783 211.2 156.29 210.88C156.823 210.533 157.237 210.12 157.53 209.64C157.85 209.133 158.01 208.52 158.01 207.8C158.01 206.893 157.743 206.147 157.21 205.56C156.703 204.947 156.023 204.453 155.17 204.08C154.317 203.68 153.343 203.333 152.25 203.04C151.183 202.72 150.077 202.413 148.93 202.12C147.783 201.827 146.663 201.493 145.57 201.12C144.503 200.72 143.543 200.24 142.69 199.68C141.837 199.093 141.143 198.373 140.61 197.52C140.103 196.667 139.85 195.627 139.85 194.4C139.85 193.253 140.077 192.227 140.53 191.32C141.01 190.413 141.703 189.653 142.61 189.04C143.543 188.4 144.69 187.92 146.05 187.6C147.41 187.253 148.97 187.08 150.73 187.08C152.17 187.08 153.503 187.24 154.73 187.56C155.983 187.853 157.077 188.32 158.01 188.96C158.97 189.573 159.717 190.36 160.25 191.32C160.783 192.28 161.05 193.44 161.05 194.8V195.28H157.29V194.68C157.29 193.773 157.01 193 156.45 192.36C155.89 191.72 155.117 191.227 154.13 190.88C153.17 190.533 152.077 190.36 150.85 190.36C149.25 190.36 147.917 190.52 146.85 190.84C145.783 191.133 144.983 191.573 144.45 192.16C143.943 192.72 143.69 193.36 143.69 194.08C143.69 194.907 143.943 195.6 144.45 196.16C144.983 196.72 145.677 197.187 146.53 197.56C147.383 197.907 148.357 198.227 149.45 198.52C150.543 198.813 151.65 199.12 152.77 199.44C153.917 199.733 155.023 200.08 156.09 200.48C157.183 200.853 158.157 201.333 159.01 201.92C159.89 202.48 160.583 203.2 161.09 204.08C161.597 204.933 161.85 205.987 161.85 207.24C161.85 209.187 161.37 210.773 160.41 212C159.45 213.2 158.13 214.08 156.45 214.64C154.77 215.2 152.823 215.48 150.61 215.48ZM179.764 215.48C176.911 215.48 174.457 214.96 172.404 213.92C170.377 212.88 168.804 211.307 167.684 209.2C166.591 207.093 166.044 204.453 166.044 201.28C166.044 198.08 166.591 195.44 167.684 193.36C168.804 191.253 170.377 189.68 172.404 188.64C174.457 187.6 176.911 187.08 179.764 187.08C182.617 187.08 185.057 187.6 187.084 188.64C189.137 189.68 190.711 191.253 191.804 193.36C192.924 195.44 193.484 198.08 193.484 201.28C193.484 204.453 192.924 207.093 191.804 209.2C190.711 211.307 189.137 212.88 187.084 213.92C185.057 214.96 182.617 215.48 179.764 215.48ZM179.764 212.2C181.257 212.2 182.604 212 183.804 211.6C185.031 211.2 186.057 210.573 186.884 209.72C187.737 208.84 188.391 207.747 188.844 206.44C189.297 205.107 189.524 203.533 189.524 201.72V200.88C189.524 199.04 189.297 197.467 188.844 196.16C188.391 194.827 187.737 193.733 186.884 192.88C186.057 192 185.031 191.36 183.804 190.96C182.604 190.56 181.257 190.36 179.764 190.36C178.244 190.36 176.884 190.56 175.684 190.96C174.484 191.36 173.457 192 172.604 192.88C171.751 193.733 171.097 194.827 170.644 196.16C170.217 197.467 170.004 199.04 170.004 200.88V201.72C170.004 203.533 170.217 205.107 170.644 206.44C171.097 207.747 171.751 208.84 172.604 209.72C173.457 210.573 174.484 211.2 175.684 211.6C176.884 212 178.244 212.2 179.764 212.2ZM173.684 185.56L177.924 180.28H181.564L185.764 185.56H182.364L178.844 181.2H180.604L177.124 185.56H173.684ZM198.967 215V187.56H202.647L215.967 205.64C216.101 205.8 216.274 206.04 216.487 206.36C216.701 206.68 216.914 207 217.127 207.32C217.341 207.613 217.514 207.88 217.647 208.12H217.807C217.807 207.693 217.807 207.28 217.807 206.88C217.807 206.453 217.807 206.04 217.807 205.64V187.56H221.527V215H218.047L204.567 196.6C204.381 196.307 204.101 195.893 203.727 195.36C203.381 194.827 203.087 194.4 202.847 194.08H202.647C202.647 194.507 202.647 194.933 202.647 195.36C202.647 195.76 202.647 196.173 202.647 196.6V215H198.967ZM228.42 215V187.56H232.22V215H228.42ZM235.925 215L246.765 187.56H251.765L262.645 215H258.525L255.845 208.2H242.485L239.845 215H235.925ZM243.725 204.96H254.565L251.245 196.36C251.165 196.12 251.045 195.787 250.885 195.36C250.725 194.933 250.551 194.467 250.365 193.96C250.178 193.427 249.991 192.893 249.805 192.36C249.618 191.8 249.445 191.293 249.285 190.84H249.045C248.858 191.373 248.645 191.987 248.405 192.68C248.165 193.373 247.925 194.053 247.685 194.72C247.445 195.36 247.245 195.907 247.085 196.36L243.725 204.96Z" fill="#EE7026"/>
</g>
<defs>
<filter id="filter0_d_33_776" x="0" y="0" width="420" height="420" filterUnits="userSpaceOnUse" color-interpolation-filters="sRGB">
<feFlood flood-opacity="0" result="BackgroundImageFix"/>
<feColorMatrix in="SourceAlpha" type="matrix" values="0 0 0 0 0 0 0 0 0 0 0 0 0 0 0 0 0 0 127 0" result="hardAlpha"/>
<feOffset dx="10" dy="10"/>
<feGaussianBlur stdDeviation="10"/>
<feComposite in2="hardAlpha" operator="out"/>
<feColorMatrix type="matrix" values="0 0 0 0 0 0 0 0 0 0 0 0 0 0 0 0 0 0 0.25 0"/>
<feBlend mode="normal" in2="BackgroundImageFix" result="effect1_dropShadow_33_776"/>
<feBlend mode="normal" in="SourceGraphic" in2="effect1_dropShadow_33_776" result="shape"/>
</filter>
</defs>
</svg>
